<?xml version="1.0" encoding="iso-8859-1"?>
<!-- Generator: Adobe Illustrator 16.0.0, SVG Export Plug-In . SVG Version: 6.00 Build 0)  -->
<!DOCTYPE svg PUBLIC "-//W3C//DTD SVG 1.1//EN" "http://www.w3.org/Graphics/SVG/1.1/DTD/svg11.dtd">
<svg version="1.1" id="Objects" xmlns="http://www.w3.org/2000/svg" xmlns:xlink="http://www.w3.org/1999/xlink" x="0px" y="0px"
	 width="63.669px" height="94.021px" viewBox="194.805 220.296 63.669 94.021"
	 style="enable-background:new 194.805 220.296 63.669 94.021;" xml:space="preserve">
<linearGradient id="SVGID_1_" gradientUnits="userSpaceOnUse" x1="181.8318" y1="218.7947" x2="277.1641" y2="245.4615" gradientTransform="matrix(1 0 0 -1 -0.0151 499.6987)">
	<stop  offset="0" style="stop-color:#EFEFEF"/>
	<stop  offset="1" style="stop-color:#FFFFFF"/>
</linearGradient>
<path style="opacity:0.89;fill:url(#SVGID_1_);enable-background:new    ;" d="M216.123,239.047
	c2.696,14.836-15.703,20.802-19.833,33.724c-4.169,13.043,0.655,27.635,11.77,35.622c9.666,6.947,22.653,7.831,33.147,2.404
	c8.618-4.475,14.954-12.839,16.731-22.42c1.179-6.375,0.408-13.029-2.259-18.945c-3.005-6.657-9.687-11.089-10.538-18.688
	c-0.767-6.813,4.055-12.359,1.846-19.306c-1.489-4.693-5.159-8.52-9.773-10.21C225.886,217.134,213.946,227.156,216.123,239.047
	C217.332,245.696,215.851,237.561,216.123,239.047z"/>
</svg>
