<?xml version="1.0" encoding="iso-8859-1"?>
<!-- Generator: Adobe Illustrator 16.0.0, SVG Export Plug-In . SVG Version: 6.00 Build 0)  -->
<!DOCTYPE svg PUBLIC "-//W3C//DTD SVG 1.1//EN" "http://www.w3.org/Graphics/SVG/1.1/DTD/svg11.dtd">
<svg version="1.1" id="Isolation_Mode" xmlns="http://www.w3.org/2000/svg" xmlns:xlink="http://www.w3.org/1999/xlink" x="0px"
	 y="0px" width="589.648px" height="386.347px" viewBox="100.857 116.406 589.648 386.347"
	 style="enable-background:new 100.857 116.406 589.648 386.347;" xml:space="preserve">
<g>
	
		<linearGradient id="SVGID_1_" gradientUnits="userSpaceOnUse" x1="395.696" y1="518.5281" x2="395.696" y2="257.4941" gradientTransform="matrix(1 0 0 -1 -0.0151 651.769)">
		<stop  offset="0" style="stop-color:#EAEAEA"/>
		<stop  offset="0.5564" style="stop-color:#FFFFFF"/>
	</linearGradient>
	<path style="fill:url(#SVGID_1_);" d="M259.127,139.479C145.814,166.814,75.876,275.77,109.188,378.26
		c27.979,86.095,123.201,138.277,221.36,121.298c67.071-11.603,120.699-51.312,149.574-102.486
		c19.618-34.766,58.913-57.935,100.673-56.175c12.547,0.528,25.573-1.121,38.534-5.256c45.545-14.534,75.64-57.201,70.632-100.401
		c-6.421-55.443-63.687-89.872-121.681-75.881c-9.807,2.368-18.965,5.957-27.313,10.54c-37.35,20.512-82.907,18.628-116.908-3.691
		C378.719,136.447,319.121,125.008,259.127,139.479z"/>
	<path style="fill:#FFFFFF;" d="M259.127,139.479c59.994-14.473,119.593-3.033,164.934,26.728
		c34.001,22.319,79.559,24.203,116.908,3.691c8.35-4.583,17.508-8.171,27.313-10.54c55.738-13.446,110.793,17.835,120.693,69.508
		c1.58-8.305,1.971-16.791,0.986-25.246c-6.42-55.189-63.687-87.356-121.681-71.077c-9.807,2.755-18.965,6.706-27.313,11.618
		c-37.35,21.986-82.907,21.901-116.908,0.924c-45.341-27.97-104.938-37.057-164.934-20.217
		c-95.711,26.868-160.473,110.747-158.209,197.129C102.882,238.697,166.508,161.822,259.127,139.479z"/>
</g>
</svg>
