<?xml version="1.0" encoding="iso-8859-1"?>
<!-- Generator: Adobe Illustrator 16.0.0, SVG Export Plug-In . SVG Version: 6.00 Build 0)  -->
<!DOCTYPE svg PUBLIC "-//W3C//DTD SVG 1.1//EN" "http://www.w3.org/Graphics/SVG/1.1/DTD/svg11.dtd">
<svg version="1.1" id="Objects" xmlns="http://www.w3.org/2000/svg" xmlns:xlink="http://www.w3.org/1999/xlink" x="0px" y="0px"
	 width="625.951px" height="327.852px" viewBox="-70.219 27.151 625.951 427.852"
	 style="enable-background:new -70.219 27.151 625.951 427.852;" xml:space="preserve">
<linearGradient id="SVGID_1_" gradientUnits="userSpaceOnUse" x1="136.4504" y1="127.4441" x2="449.934" y2="565.4213" gradientTransform="matrix(1 0 0 -1 -0.0151 499.6987)">
	<stop  offset="0" style="stop-color:#EFEFEF"/>
	<stop  offset="1" style="stop-color:#FFFFFF"/>
</linearGradient>
<path style="opacity:0.89;fill:url(#SVGID_1_);enable-background:new    ;" d="M43.682,278.455
	c101.132-6.769,127.025,120.631,210.208,158.013c83.948,37.725,185.065,16.559,246.826-51.608
	c53.725-59.297,69.467-145.373,41.176-219.567c-23.35-60.958-74.41-109.611-137.058-128.734
	c-41.686-12.709-86.721-12.61-128.239,0.725c-46.746,15.018-81.4,56.292-132.801,56.231C97.708,93.457,64.322,57.069,16.254,66.545
	c-32.467,6.402-60.8,28.012-75.594,57.535C-95.267,196.649-37.384,283.986,43.682,278.455
	C89.016,275.42,33.552,279.146,43.682,278.455z"/>
</svg>
