<?xml version="1.0" encoding="utf-8"?>
<!-- Generator: Adobe Illustrator 16.0.0, SVG Export Plug-In . SVG Version: 6.00 Build 0)  -->
<!DOCTYPE svg PUBLIC "-//W3C//DTD SVG 1.1//EN" "http://www.w3.org/Graphics/SVG/1.1/DTD/svg11.dtd">
<svg version="1.1" id="Isolation_Mode" xmlns="http://www.w3.org/2000/svg" xmlns:xlink="http://www.w3.org/1999/xlink" x="0px"
	 y="0px" width="516.104px" height="1405.733px" viewBox="-290.649 -2125.317 516.104 1405.733"
	 enable-background="new -290.649 -2125.317 516.104 1405.733" xml:space="preserve">
<g>
	
		<linearGradient id="SVGID_1_" gradientUnits="userSpaceOnUse" x1="-88.9001" y1="2765.5671" x2="-88.9002" y2="2586.9553" gradientTransform="matrix(1 0 0 -1 -0.0151 651.769)">
		<stop  offset="0" style="stop-color:#EAEAEA"/>
		<stop  offset="0.5564" style="stop-color:#FFFFFF"/>
	</linearGradient>
	<path fill="url(#SVGID_1_)" d="M-182.353-2109.529c-77.534,18.704-125.39,93.257-102.595,163.385
		c19.144,58.91,84.299,94.617,151.465,82.998c45.894-7.94,82.587-35.11,102.346-70.126c13.423-23.788,40.31-39.641,68.884-38.438
		c8.585,0.362,17.499-0.767,26.368-3.596c31.163-9.944,51.755-39.139,48.33-68.699c-4.394-37.936-43.578-61.494-83.26-51.921
		c-6.71,1.62-12.977,4.077-18.689,7.213c-25.557,14.034-56.729,12.745-79.995-2.526
		C-100.522-2111.603-141.302-2119.431-182.353-2109.529z"/>
	<path fill="#FFFFFF" d="M-182.353-2109.529c41.05-9.903,81.831-2.075,112.855,18.289c23.264,15.271,54.437,16.56,79.994,2.525
		c5.713-3.136,11.979-5.592,18.688-7.213c38.139-9.199,75.81,12.204,82.584,47.562c1.081-5.684,1.348-11.49,0.676-17.274
		c-4.394-37.764-43.578-59.774-83.26-48.635c-6.71,1.885-12.977,4.588-18.689,7.949c-25.557,15.045-56.729,14.987-79.995,0.633
		c-31.024-19.138-71.804-25.356-112.855-13.834c-65.49,18.385-109.803,75.778-108.254,134.885
		C-289.263-2041.639-245.727-2094.241-182.353-2109.529z"/>
</g>
<linearGradient id="SVGID_2_" gradientUnits="userSpaceOnUse" x1="-14.0686" y1="777.5779" x2="196.6813" y2="1072.0227" gradientTransform="matrix(-0.1094 0.994 0.994 0.1094 -869.221 -1081.399)">
	<stop  offset="0" style="stop-color:#EFEFEF"/>
	<stop  offset="1" style="stop-color:#FFFFFF"/>
</linearGradient>
<path opacity="0.89" fill="url(#SVGID_2_)" enable-background="new    " d="M-25.268-1065.389
	c-2.916,68.079-89.954,76.01-121.054,128.848c-31.384,53.324-24.677,122.451,16.332,168.737
	c35.674,40.262,92.035,57.114,143.696,43.666c42.453-11.12,78.721-41.663,96.109-82.12c11.558-26.92,14.804-57.022,8.947-85.748
	c-6.596-32.343-31.629-58.536-27.807-92.879c3.427-30.793,30.2-50.427,27.402-83.245c-1.89-22.167-14.247-42.689-32.886-54.748
	C39.619-1152.223-23-1119.968-25.268-1065.389C-26.573-1034.871-24.984-1072.21-25.268-1065.389z"/>
<linearGradient id="SVGID_3_" gradientUnits="userSpaceOnUse" x1="21.7874" y1="-1619.9929" x2="21.7873" y2="-1862.812">
	<stop  offset="0" style="stop-color:#EFEFEF"/>
	<stop  offset="1" style="stop-color:#FFFFFF"/>
</linearGradient>
<path opacity="0.89" fill="url(#SVGID_3_)" enable-background="new    " d="M-109.863-1740.954
	c66.193-2.169,80.276,81.611,133.763,107.868c53.988,26.506,120.491,14.932,162.345-28.218
	c36.402-37.527,48.6-93.386,31.772-142.473c-13.896-40.323-46.162-73.233-86.646-87.12c-26.94-9.223-56.348-10.157-83.767-2.375
	c-30.857,8.772-54.411,34.953-87.974,33.763c-30.098-1.053-51.091-25.568-82.692-20.439c-21.35,3.45-40.335,16.934-50.647,35.895
	C-198.79-1797.474-162.926-1739.146-109.863-1740.954C-80.195-1741.929-116.491-1740.73-109.863-1740.954z"/>
</svg>
