<?xml version="1.0" encoding="utf-8"?>
<!-- Generator: Adobe Illustrator 16.0.0, SVG Export Plug-In . SVG Version: 6.00 Build 0)  -->
<!DOCTYPE svg PUBLIC "-//W3C//DTD SVG 1.1//EN" "http://www.w3.org/Graphics/SVG/1.1/DTD/svg11.dtd">
<svg version="1.1" id="Objects" xmlns="http://www.w3.org/2000/svg" xmlns:xlink="http://www.w3.org/1999/xlink" x="0px" y="0px"
	 width="1050px" height="731.635px" viewBox="0 0 1050 731.635" enable-background="new 0 0 1050 731.635" xml:space="preserve">
<linearGradient id="SVGID_1_" gradientUnits="userSpaceOnUse" x1="939.7217" y1="-82.7676" x2="375.6535" y2="456.5859">
	<stop  offset="0" style="stop-color:#FFFFFF"/>
	<stop  offset="1" style="stop-color:#F6F6F6"/>
</linearGradient>
<path fill="url(#SVGID_1_)" d="M292.709,35.595c142.689,107.119,314.9-64.347,478.669-24.053
	c152.946,37.619,267.042,173.034,277.791,330.224c8.521,124.717-48.984,246.495-149.299,319.547
	c-90.118,65.412-208.475,87.48-315.868,56.5c-67.455-19.469-128.658-58.045-174.812-111.021
	c-54.215-62.238-66.459-153.119-132.712-204.389C172.67,322.053-15.365,362.559,1.002,166.476
	C12.035,25.893,180.456-48.882,292.709,35.595C354.726,82.151,278.854,25.175,292.709,35.595z"/>
</svg>
