<?xml version="1.0" encoding="iso-8859-1"?>
<!-- Generator: Adobe Illustrator 16.0.0, SVG Export Plug-In . SVG Version: 6.00 Build 0)  -->
<!DOCTYPE svg PUBLIC "-//W3C//DTD SVG 1.1//EN" "http://www.w3.org/Graphics/SVG/1.1/DTD/svg11.dtd">
<svg version="1.1" id="Capa_1" xmlns="http://www.w3.org/2000/svg" xmlns:xlink="http://www.w3.org/1999/xlink" x="0px" y="0px"
	 width="409.991px" height="278.137px" viewBox="58 121.931 409.991 278.137"
	 style="enable-background:new 58 121.931 409.991 278.137;" xml:space="preserve">
<path style="fill:#FFFFFF;" d="M440.547,121.931H85.445C70.35,121.931,58,134.282,58,149.377s12.351,27.445,27.445,27.445h355.102
	c15.095,0,27.444-12.351,27.444-27.445S455.641,121.931,440.547,121.931z"/>
<path style="fill:#FFFFFF;" d="M440.547,233.554H85.445C70.35,233.554,58,245.905,58,261s12.351,27.446,27.445,27.446h355.102
	c15.095,0,27.444-12.352,27.444-27.446S455.641,233.554,440.547,233.554z"/>
<path style="fill:#FFFFFF;" d="M440.547,345.177H85.445C70.35,345.177,58,357.528,58,372.623s12.351,27.445,27.445,27.445h355.102
	c15.095,0,27.444-12.351,27.444-27.445S455.641,345.177,440.547,345.177z"/>
</svg>
