<?xml version="1.0" encoding="iso-8859-1"?>
<!-- Generator: Adobe Illustrator 16.0.0, SVG Export Plug-In . SVG Version: 6.00 Build 0)  -->
<!DOCTYPE svg PUBLIC "-//W3C//DTD SVG 1.1//EN" "http://www.w3.org/Graphics/SVG/1.1/DTD/svg11.dtd">
<svg version="1.1" id="Objects" xmlns="http://www.w3.org/2000/svg" xmlns:xlink="http://www.w3.org/1999/xlink" x="0px" y="0px"
	 width="640.011px" height="888.016px" viewBox="1177.118 3722.117 640.011 888.016"
	 style="enable-background:new 1177.118 3722.117 640.011 888.016;" xml:space="preserve">
<path style="fill:#FFFFFF;" d="M1633.066,3824.722c-16.88-59.164-71.434-102.605-135.943-102.605
	c-64.509,0-119.063,43.441-135.943,102.605c-107.259,170.313-184.062,631.756-184.062,763.17c0,7.031,3.324,13.646,8.964,17.843
	c5.642,4.196,12.934,5.479,19.664,3.458l291.377-69.543l291.375,69.542c6.733,2.022,14.025,0.737,19.666-3.459
	s8.965-10.81,8.965-17.841C1817.13,4456.479,1706.612,3934.754,1633.066,3824.722z M1400.26,3863.455
	c0-53.409,43.453-96.861,96.862-96.861c53.411,0,96.862,43.451,96.862,96.861v119.104c0,53.407-43.453,96.857-96.862,96.857
	s-96.862-43.45-96.862-96.857V3863.455z M1503.514,4499.103c-4.172-1.252-8.613-1.252-12.783,0l-264.084,54.987
	c2.627-187.463,84.549-486.8,129.135-611.031v39.501c0,77.934,63.406,141.338,141.343,141.338
	c77.934,0,141.34-63.405,141.34-141.338v-39.501c44.588,124.234,126.512,423.569,129.137,611.031L1503.514,4499.103z"/>
<g>
	<path style="fill:#FFFFFF;" d="M1542.155,4256.481c-10.579,0-19.186,8.606-19.186,19.185v118.451
		c0,10.578,8.605,19.185,19.186,19.185c10.577,0,19.184-8.604,19.184-19.185v-118.451
		C1561.339,4265.088,1552.732,4256.481,1542.155,4256.481z"/>
	<path style="fill:#FFFFFF;" d="M1452.093,4256.481c-10.578,0-19.186,8.606-19.186,19.185v118.451
		c0,10.578,8.606,19.185,19.186,19.185s19.184-8.604,19.184-19.185v-118.451C1471.275,4265.088,1462.671,4256.481,1452.093,4256.481
		z"/>
</g>
</svg>
