<?xml version="1.0" encoding="utf-8"?>
<!-- Generator: Adobe Illustrator 16.0.0, SVG Export Plug-In . SVG Version: 6.00 Build 0)  -->
<!DOCTYPE svg PUBLIC "-//W3C//DTD SVG 1.1//EN" "http://www.w3.org/Graphics/SVG/1.1/DTD/svg11.dtd">
<svg version="1.1" id="Layer_1" xmlns="http://www.w3.org/2000/svg" xmlns:xlink="http://www.w3.org/1999/xlink" x="0px" y="0px"
	 width="70.544px" height="70.11px" viewBox="345.391 171.989 70.544 70.11" enable-background="new 345.391 171.989 70.544 70.11"
	 xml:space="preserve">
<path fill="#FFFFFF" d="M397.611,219.811l-9.009-13.72l7.397-9.257c0.219-0.275,0.33-0.62,0.33-1.033
	c0-0.661-0.345-1.287-1.033-1.879c-0.688-0.593-1.377-0.889-2.066-0.889c-0.606,0-1.103,0.263-1.487,0.785l-8.927,12.15
	l-0.006-32.285c0-0.522-0.235-0.936-0.703-1.24c-0.469-0.303-1.02-0.455-1.653-0.455h-7.231c-0.552,0-0.971,0.227-1.261,0.682
	c-0.289,0.455-0.434,0.999-0.434,1.632c0,0.661,0.151,1.226,0.455,1.694c0.303,0.469,0.716,0.702,1.24,0.702h4.215v16.282
	c0,3.168-1.46,4.752-4.38,4.752c-2.728,0-4.146-1.473-4.257-4.421c-0.11-1.129-1.006-1.694-2.686-1.694
	c-0.964,0-1.653,0.186-2.066,0.558c-0.414,0.372-0.62,1.054-0.62,2.046c0,2.535,0.916,4.539,2.748,6.013
	c1.832,1.475,4.208,2.211,7.129,2.211c1.54,0,2.919-0.227,4.139-0.678v19.779c0,0.524,0.262,0.937,0.785,1.24
	c0.523,0.304,1.157,0.455,1.901,0.455c0.716,0,1.343-0.151,1.88-0.455c0.537-0.303,0.806-0.716,0.806-1.24v-8.1l2.232-2.81
	l7.769,11.778c0.414,0.689,1.034,1.033,1.86,1.033c0.799,0,1.535-0.283,2.211-0.847c0.674-0.564,1.012-1.178,1.012-1.839
	C397.899,220.405,397.802,220.087,397.611,219.811z"/>
<g>
	<path fill="#FFFFFF" d="M346.144,242.01h-0.753v-6.474H349v0.669h-2.856v2.369h2.683v0.668h-2.683V242.01z"/>
	<path fill="#FFFFFF" d="M353.182,239.318v2.692h-0.753v-6.474h1.776c0.793,0,1.38,0.152,1.76,0.456
		c0.379,0.304,0.569,0.762,0.569,1.373c0,0.856-0.434,1.435-1.302,1.736l1.758,2.909h-0.89l-1.567-2.692H353.182z M353.182,238.672
		h1.032c0.531,0,0.921-0.105,1.169-0.316c0.248-0.211,0.372-0.528,0.372-0.95c0-0.428-0.126-0.736-0.378-0.925
		c-0.252-0.189-0.658-0.283-1.216-0.283h-0.979V238.672z"/>
	<path fill="#FFFFFF" d="M364.002,242.01h-3.608v-6.474h3.608v0.669h-2.856v2.085h2.684v0.664h-2.684v2.382h2.856V242.01z"/>
	<path fill="#FFFFFF" d="M371.403,242.01h-3.608v-6.474h3.608v0.669h-2.856v2.085h2.684v0.664h-2.684v2.382h2.856V242.01z"/>
	<path fill="#FFFFFF" d="M380.363,238.712c0,1.068-0.29,1.885-0.87,2.451s-1.415,0.848-2.504,0.848h-1.793v-6.474h1.983
		c1.007,0,1.789,0.279,2.347,0.837C380.084,236.931,380.363,237.711,380.363,238.712z M379.566,238.738
		c0-0.844-0.212-1.48-0.635-1.909c-0.424-0.428-1.054-0.642-1.889-0.642h-1.094v5.171h0.917c0.897,0,1.572-0.22,2.023-0.662
		S379.566,239.603,379.566,238.738z"/>
	<path fill="#FFFFFF" d="M384.164,242.01v-6.474h0.753v6.474H384.164z"/>
	<path fill="#FFFFFF" d="M392.748,235.536h0.811l-2.333,6.474h-0.745l-2.32-6.474h0.797l1.488,4.189
		c0.171,0.481,0.306,0.949,0.407,1.404c0.106-0.478,0.246-0.955,0.417-1.43L392.748,235.536z"/>
	<path fill="#FFFFFF" d="M396.806,242.01v-6.474h0.753v6.474H396.806z"/>
	<path fill="#FFFFFF" d="M406.749,242.01h-0.859l-3.538-5.433h-0.035c0.047,0.638,0.07,1.222,0.07,1.753v3.68h-0.695v-6.474h0.851
		l3.529,5.411h0.035c-0.006-0.08-0.019-0.336-0.04-0.768c-0.021-0.433-0.028-0.742-0.022-0.928v-3.715h0.704V242.01z"/>
	<path fill="#FFFFFF" d="M413.735,238.618h2.201v3.148c-0.343,0.109-0.691,0.192-1.045,0.248c-0.354,0.056-0.764,0.084-1.231,0.084
		c-0.98,0-1.743-0.292-2.289-0.875s-0.819-1.4-0.819-2.451c0-0.673,0.135-1.263,0.405-1.769s0.659-0.893,1.167-1.161
		c0.508-0.267,1.103-0.4,1.784-0.4c0.691,0,1.334,0.127,1.931,0.381l-0.292,0.664c-0.584-0.248-1.147-0.372-1.688-0.372
		c-0.788,0-1.403,0.235-1.846,0.704c-0.443,0.47-0.664,1.12-0.664,1.953c0,0.874,0.213,1.536,0.64,1.988
		c0.427,0.452,1.053,0.678,1.88,0.678c0.449,0,0.887-0.052,1.315-0.155v-1.992h-1.448V238.618z"/>
</g>
</svg>
