<?xml version="1.0" encoding="utf-8"?>
<!-- Generator: Adobe Illustrator 16.0.0, SVG Export Plug-In . SVG Version: 6.00 Build 0)  -->
<!DOCTYPE svg PUBLIC "-//W3C//DTD SVG 1.1//EN" "http://www.w3.org/Graphics/SVG/1.1/DTD/svg11.dtd">
<svg version="1.1" id="Layer_1" xmlns="http://www.w3.org/2000/svg" xmlns:xlink="http://www.w3.org/1999/xlink" x="0px" y="0px"
	 width="60px" height="91px" viewBox="348.669 180.321 131.178 195.823"
	 enable-background="new 348.669 180.321 131.178 195.823" xml:space="preserve">
<linearGradient id="SVGID_1_" gradientUnits="userSpaceOnUse" x1="414.2571" y1="180.321" x2="414.2571" y2="376.1443">
	<stop  offset="0" style="stop-color:#06D1C3"/>
	<stop  offset="1" style="stop-color:#0880E0"/>
</linearGradient>
<path fill="url(#SVGID_1_)" d="M478.748,362.304l-34.283-52.209l28.147-35.226c0.837-1.048,1.259-2.359,1.259-3.932
	c0-2.516-1.313-4.898-3.933-7.154c-2.621-2.254-5.243-3.382-7.862-3.382c-2.308,0-4.193,0.998-5.66,2.988l-33.969,46.233
	l-0.024-122.853c0-1.99-0.893-3.563-2.674-4.718c-1.783-1.152-3.88-1.73-6.291-1.73h-27.52c-2.098,0-3.695,0.865-4.796,2.596
	c-1.102,1.729-1.651,3.801-1.651,6.211c0,2.517,0.575,4.667,1.729,6.448c1.151,1.783,2.726,2.673,4.718,2.673h16.041v61.959
	c0,12.057-5.558,18.084-16.669,18.084c-10.378,0-15.779-5.607-16.197-16.827c-0.42-4.297-3.829-6.447-10.222-6.447
	c-3.671,0-6.291,0.708-7.863,2.123c-1.573,1.416-2.359,4.01-2.359,7.785c0,9.646,3.484,17.272,10.458,22.881
	c6.972,5.61,16.014,8.413,27.128,8.413c5.86,0,11.107-0.865,15.75-2.58v75.27c0,1.99,0.995,3.563,2.987,4.717
	c1.99,1.154,4.404,1.729,7.234,1.729c2.725,0,5.111-0.574,7.155-1.729c2.044-1.152,3.065-2.727,3.065-4.717v-30.824l8.492-10.693
	l29.564,44.82c1.573,2.621,3.934,3.932,7.078,3.932c3.038,0,5.843-1.076,8.412-3.225c2.567-2.148,3.853-4.482,3.853-6.998
	C479.846,364.56,479.477,363.353,478.748,362.304z"/>
</svg>
