<?xml version="1.0" encoding="utf-8"?>
<!-- Generator: Adobe Illustrator 16.0.0, SVG Export Plug-In . SVG Version: 6.00 Build 0)  -->
<!DOCTYPE svg PUBLIC "-//W3C//DTD SVG 1.1//EN" "http://www.w3.org/Graphics/SVG/1.1/DTD/svg11.dtd">
<svg version="1.1" id="Layer_1" xmlns="http://www.w3.org/2000/svg" xmlns:xlink="http://www.w3.org/1999/xlink" x="0px" y="0px"
	 width="379.514px" height="154.811px" viewBox="0 0 379.514 154.811" enable-background="new 0 0 379.514 154.811"
	 xml:space="preserve">
<path fill="#FFFFFF" d="M54.358,53.687V30.595c0-0.962,0.625-1.859,1.876-2.693c1.25-0.833,2.709-1.251,4.377-1.251
	c1.603,0,3.031,0.416,4.281,1.247c1.251,0.835,1.876,1.728,1.876,2.688v23.028c0,2.239,0.833,4.238,2.502,5.998
	c1.667,1.757,3.656,2.637,5.965,2.637c2.309,0,4.281-0.88,5.917-2.637c1.635-1.76,2.453-3.759,2.453-5.998V30.489
	c0-1.023,0.626-1.918,1.876-2.687c1.251-0.768,2.709-1.152,4.377-1.152c1.795,0,3.271,0.385,4.426,1.155
	c1.154,0.77,1.731,1.668,1.731,2.694v23.187c0,5.195-2.054,9.749-6.158,13.662c-4.105,3.912-8.98,5.868-14.624,5.868
	c-5.646,0-10.536-1.956-14.672-5.868C56.427,63.436,54.358,58.882,54.358,53.687z M107.898,71.147
	c1.186,0.804,2.646,1.204,4.377,1.204c1.667,0,3.127-0.418,4.377-1.251c1.251-0.833,1.876-1.733,1.876-2.695V3.848
	c0-1.153-0.61-2.083-1.828-2.79C115.483,0.353,114.008,0,112.276,0c-1.861,0-3.353,0.353-4.474,1.059
	c-1.123,0.707-1.683,1.636-1.683,2.79v64.557C106.119,69.434,106.711,70.347,107.898,71.147z M135.416,26.65
	c-1.725,0-3.145,0.354-4.254,1.059c-1.109,0.707-1.663,1.635-1.663,2.791v37.905c0,1.028,0.569,1.941,1.709,2.742
	c1.139,0.804,2.542,1.204,4.208,1.204c1.603,0,3.005-0.418,4.208-1.251c1.203-0.833,1.805-1.733,1.805-2.695V30.5
	c0-1.156-0.572-2.084-1.711-2.791C138.576,27.004,137.142,26.65,135.416,26.65z M130.387,14.798
	c1.363,1.104,3.042,1.653,5.038,1.653c1.791,0,3.319-0.549,4.585-1.653c1.266-1.102,1.899-2.379,1.899-3.831
	c0-1.509-0.633-2.8-1.899-3.874c-1.266-1.075-2.794-1.61-4.585-1.61c-1.997,0-3.675,0.535-5.038,1.61
	c-1.362,1.074-2.044,2.365-2.044,3.874C128.343,12.419,129.024,13.697,130.387,14.798z M174.716,46.278v-1.287
	c0-2.44-0.69-4.567-2.069-6.382c-1.38-1.814-3.512-2.723-6.397-2.723s-5.356,0.545-7.409,1.635c-2.053,1.093-3.239,1.636-3.56,1.636
	c-1.284,0-2.309-0.64-3.079-1.925c-0.77-1.281-1.153-2.691-1.153-4.232c0-1.858,1.649-3.478,4.954-4.858
	c3.303-1.379,6.783-2.068,10.439-2.068c6.99,0,12.186,1.779,15.586,5.34c3.398,3.559,5.099,8.032,5.099,13.422v23.57
	c0,1.093-0.577,2.021-1.731,2.792c-1.154,0.769-2.598,1.154-4.329,1.154c-1.604,0-2.935-0.412-3.993-1.235
	c-1.059-0.822-1.587-1.815-1.587-2.981v-2.983c-4.427,5.376-9.301,8.065-14.624,8.065c-3.656,0-6.655-1.124-8.996-3.372
	c-2.342-2.248-3.512-5.52-3.512-9.82c0-5.049,1.924-8.603,5.773-10.66c3.848-2.058,9.395-3.086,16.644-3.086H174.716z
	 M174.716,52.725h-1.444c-3.912,0-6.975,0.379-9.188,1.14c-2.213,0.762-3.32,2.298-3.32,4.609c0,1.646,0.465,2.877,1.396,3.697
	c0.93,0.823,2.164,1.231,3.704,1.231c2.052,0,4.04-0.912,5.965-2.737c1.924-1.824,2.887-3.833,2.887-6.024V52.725z M58.464,114.018
	l17.222-21.551c0.512-0.641,0.77-1.444,0.77-2.406c0-1.539-0.803-2.997-2.405-4.378c-1.604-1.377-3.208-2.067-4.811-2.067
	c-1.412,0-2.565,0.609-3.463,1.828l-20.781,28.285V54.002c0.083-0.996,0.129-2.029,0.129-3.107V5.965
	c0-1.219-0.546-2.179-1.636-2.886c-1.091-0.705-2.374-1.058-3.848-1.058H22.802c-1.283,0-2.26,0.529-2.935,1.586
	c-0.673,1.059-1.01,2.327-1.01,3.801c0,1.54,0.352,2.855,1.059,3.945c0.705,1.09,1.667,1.636,2.886,1.636h9.814v35.703
	c-0.084,0.293-0.129,0.606-0.129,0.944v3.532c-0.661,5.854-4.013,8.791-10.069,8.791c-6.35,0-9.654-3.431-9.91-10.295
	c-0.257-2.628-2.342-3.943-6.253-3.943c-2.246,0-3.849,0.431-4.811,1.298C0.481,49.886,0,51.473,0,53.781
	C0,59.684,2.132,64.35,6.398,67.78c4.265,3.434,9.797,5.147,16.597,5.147c3.529,0,6.686-0.525,9.492-1.541V150
	c0,1.22,0.609,2.182,1.828,2.887c1.217,0.707,2.694,1.059,4.425,1.059c1.667,0,3.127-0.352,4.378-1.059
	c1.25-0.705,1.876-1.667,1.876-2.887v-18.857l5.195-6.543l18.088,27.421c0.961,1.604,2.405,2.406,4.329,2.406
	c1.859,0,3.575-0.657,5.147-1.974c1.571-1.314,2.357-2.742,2.357-4.28c0-0.833-0.226-1.572-0.674-2.214L58.464,114.018z
	 M124.656,127.197v7.892c0,5.194-2.085,9.78-6.254,13.757c-4.17,3.979-9.044,5.965-14.625,5.965c-5.58,0-10.455-1.986-14.624-5.965
	c-4.17-3.977-6.254-8.563-6.254-13.757v-7.892c0-5.257,2.052-9.828,6.158-13.709c4.104-3.88,9.011-5.821,14.72-5.821
	c5.58,0,10.454,1.925,14.625,5.772C122.57,117.289,124.656,121.874,124.656,127.197z M112.244,127.229
	c0-2.164-0.852-4.136-2.549-5.919c-1.701-1.782-3.673-2.675-5.917-2.675c-2.309,0-4.297,0.878-5.965,2.628
	c-1.669,1.748-2.501,3.737-2.501,5.966v7.83c0,2.291,0.833,4.328,2.501,6.111c1.667,1.782,3.656,2.673,5.965,2.673
	c2.245,0,4.217-0.891,5.917-2.673c1.698-1.783,2.549-3.82,2.549-6.111V127.229z M163.813,144.132h-18.858l19.049-26.511
	c1.283-1.691,1.925-3.443,1.925-5.264c0-1.308-0.385-2.321-1.155-3.038c-0.77-0.715-1.73-1.074-2.886-1.074h-28.286
	c-1.091,0-1.972,0.468-2.646,1.401c-0.673,0.936-1.01,2.087-1.01,3.459c0,1.37,0.352,2.54,1.058,3.506
	c0.706,0.965,1.571,1.447,2.598,1.447h16.645l-18.954,26.519c-1.411,1.689-2.116,3.379-2.116,5.068c0,1.184,0.351,2.197,1.059,3.038
	c0.705,0.842,1.763,1.262,3.175,1.262h30.403c1.089,0,1.973-0.466,2.646-1.402c0.673-0.935,1.01-2.087,1.01-3.457
	c0-1.372-0.353-2.54-1.058-3.505C165.703,144.615,164.838,144.132,163.813,144.132z M184.113,134.318v1.443
	c0,2.758,1.024,4.987,3.078,6.685c2.052,1.701,4.777,2.551,8.178,2.551c2.438,0,4.843-0.609,7.216-1.827
	c2.372-1.219,3.912-1.829,4.618-1.829c1.348,0,2.469,0.625,3.367,1.877c0.897,1.251,1.347,2.452,1.347,3.607
	c0,1.797-1.62,3.576-4.858,5.34c-3.239,1.766-7.264,2.646-12.074,2.646c-6.864,0-12.459-1.811-16.789-5.436
	c-4.329-3.623-6.494-8.386-6.494-14.286v-8.18c0-5.258,2.052-9.78,6.158-13.566c4.104-3.783,9.075-5.676,14.912-5.676
	c5.451,0,10.116,1.725,13.999,5.171c3.88,3.448,5.82,7.78,5.82,13c0,1.906-0.24,3.478-0.722,4.716
	c-0.48,1.238-1.219,2.111-2.213,2.621c-0.995,0.507-1.908,0.826-2.742,0.952c-0.834,0.127-1.924,0.191-3.271,0.191H184.113z
	 M184.113,127.005h14.046c1.024,0,1.747-0.163,2.165-0.494c0.416-0.329,0.625-0.973,0.625-1.932c0-2.096-0.818-3.803-2.453-5.122
	c-1.635-1.316-3.641-1.977-6.014-1.977c-2.246,0-4.201,0.645-5.868,1.933c-1.668,1.288-2.501,2.98-2.501,5.077V127.005z
	 M246.457,107.667h-2.982c-2.502,0-4.844,0.842-7.023,2.524c-2.182,1.682-3.785,3.655-4.81,5.921v-3.983
	c0-1.165-0.53-2.103-1.588-2.815c-1.06-0.712-2.391-1.068-3.993-1.068c-1.797,0-3.256,0.353-4.377,1.058
	c-1.123,0.707-1.685,1.636-1.685,2.791V150c0,1.027,0.577,1.94,1.731,2.741c1.154,0.804,2.598,1.204,4.33,1.204
	c1.667,0,3.142-0.416,4.426-1.247c1.281-0.831,1.924-1.728,1.924-2.688v-17.175c0-4.223,1.107-7.644,3.319-10.267
	c2.213-2.622,4.794-3.935,7.745-3.935h2.982c1.154,0,2.196-0.548,3.126-1.649c0.93-1.101,1.396-2.394,1.396-3.882
	c0-1.424-0.467-2.686-1.396-3.786S247.611,107.667,246.457,107.667z M282.606,129.741c-1.665-0.873-3.474-1.638-5.422-2.293
	c-1.949-0.655-3.773-1.168-5.472-1.544c-1.701-0.373-3.128-0.904-4.282-1.59c-1.154-0.688-1.732-1.56-1.732-2.621
	c0-1.061,0.578-2.027,1.732-2.902c1.154-0.873,2.821-1.311,5.002-1.311c1.988,0,4.122,0.402,6.399,1.203
	c2.275,0.804,3.672,1.202,4.185,1.202c1.283,0,2.357-0.72,3.224-2.164c0.864-1.443,1.299-2.709,1.299-3.801
	c0-1.731-1.557-3.207-4.666-4.426c-3.111-1.217-6.655-1.828-10.632-1.828c-5.965,0-10.327,1.438-13.085,4.309
	c-2.758,2.872-4.137,6.298-4.137,10.279c0,2.871,0.785,5.226,2.356,7.066c1.571,1.839,3.479,3.149,5.725,3.931
	c2.245,0.78,4.475,1.451,6.688,2.013c2.213,0.561,4.104,1.278,5.676,2.151c1.572,0.875,2.358,2.06,2.358,3.557
	c0,2.685-2.37,4.024-7.107,4.024c-2.403,0-4.48-0.335-6.231-1.007c-1.753-0.672-3.165-1.329-4.235-1.972
	c-1.072-0.644-1.965-0.965-2.678-0.965c-1.104,0-2.077,0.623-2.921,1.874c-0.845,1.252-1.266,2.455-1.266,3.609
	c0,2.181,1.698,4.104,5.1,5.772c3.398,1.667,7.504,2.501,12.314,2.501c5.581,0,9.926-1.273,13.037-3.821
	c3.11-2.546,4.666-6.041,4.666-10.484c0-2.619-0.567-4.852-1.697-6.689C285.672,131.974,284.272,130.617,282.606,129.741z
	 M322.848,126.332l11.354-10.294c0.704-0.705,1.058-1.475,1.058-2.31c0-1.41-0.673-2.757-2.021-4.04
	c-1.348-1.282-2.693-1.925-4.041-1.925c-0.899,0-1.731,0.322-2.502,0.962l-18.088,17.03V85.443c0-1.155-0.609-2.084-1.827-2.79
	c-1.221-0.706-2.728-1.06-4.522-1.06c-1.796,0-3.255,0.354-4.377,1.06c-1.123,0.706-1.685,1.635-1.685,2.79V150
	c0,1.027,0.577,1.94,1.732,2.741c1.154,0.804,2.598,1.204,4.329,1.204c1.667,0,3.142-0.418,4.425-1.251
	c1.283-0.832,1.925-1.732,1.925-2.694v-10.584l5.965-5.483l12.988,19.146c0.771,1.089,1.795,1.636,3.079,1.636
	c1.54,0,3.096-0.674,4.666-2.021c1.572-1.347,2.358-2.726,2.358-4.138c0-0.705-0.225-1.378-0.674-2.02L322.848,126.332z
	 M379.514,126.429V150c0,1.092-0.576,2.021-1.73,2.791c-1.154,0.769-2.598,1.154-4.33,1.154c-1.604,0-2.934-0.411-3.992-1.234
	s-1.588-1.815-1.588-2.982v-2.982c-4.426,5.376-9.302,8.064-14.624,8.064c-3.657,0-6.655-1.123-8.996-3.372
	c-2.342-2.247-3.512-5.52-3.512-9.819c0-5.049,1.924-8.603,5.772-10.661c3.849-2.057,9.396-3.086,16.646-3.086h3.943v-1.287
	c0-2.44-0.689-4.567-2.068-6.382c-1.379-1.813-3.511-2.723-6.397-2.723c-2.886,0-5.356,0.546-7.408,1.636
	c-2.053,1.092-3.24,1.635-3.561,1.635c-1.284,0-2.309-0.64-3.079-1.924c-0.769-1.282-1.154-2.692-1.154-4.233
	c0-1.857,1.651-3.477,4.955-4.857c3.303-1.38,6.783-2.069,10.44-2.069c6.988,0,12.186,1.78,15.586,5.34
	C377.814,116.566,379.514,121.04,379.514,126.429z M367.103,134.318h-1.442c-3.914,0-6.976,0.38-9.188,1.141
	c-2.214,0.761-3.318,2.296-3.318,4.608c0,1.646,0.464,2.878,1.394,3.698c0.93,0.822,2.166,1.231,3.705,1.231
	c2.052,0,4.04-0.913,5.965-2.737c1.924-1.824,2.886-3.834,2.886-6.025V134.318z"/>
</svg>
