<?xml version="1.0" encoding="utf-8"?>
<!-- Generator: Adobe Illustrator 16.0.0, SVG Export Plug-In . SVG Version: 6.00 Build 0)  -->
<!DOCTYPE svg PUBLIC "-//W3C//DTD SVG 1.1//EN" "http://www.w3.org/Graphics/SVG/1.1/DTD/svg11.dtd">
<svg version="1.1" id="Layer_1" xmlns="http://www.w3.org/2000/svg" xmlns:xlink="http://www.w3.org/1999/xlink" x="0px" y="0px"
	 width="132.178px" height="196.822px" viewBox="0 0 132.178 196.822" enable-background="new 0 0 132.178 196.822"
	 xml:space="preserve">
<g>
	<path fill="#E8E8E8" d="M130.998,182.209l-34.084-51.906l27.92-34.942c0.908-1.138,1.369-2.565,1.369-4.244
		c0-2.652-1.382-5.187-4.107-7.533c-2.703-2.324-5.458-3.503-8.188-3.503c-2.461,0-4.501,1.074-6.063,3.192L74.78,128.276
		L74.755,6.947c0-2.161-0.977-3.89-2.902-5.139c-1.859-1.201-4.067-1.81-6.563-1.81H37.77c-2.268,0-4.023,0.951-5.218,2.827
		c-1.147,1.801-1.729,3.981-1.729,6.479c0,2.605,0.608,4.866,1.809,6.719c1.243,1.926,2.972,2.902,5.138,2.902h15.541v61.459
		c0,11.832-5.289,17.584-16.169,17.584c-10.152,0-15.287-5.347-15.699-16.376c-0.447-4.577-4.054-6.897-10.72-6.897
		c-3.78,0-6.538,0.757-8.197,2.251c-1.675,1.508-2.525,4.252-2.525,8.156c0,9.761,3.582,17.59,10.645,23.271
		c7.029,5.655,16.261,8.522,27.441,8.522c5.598,0,10.724-0.797,15.25-2.369v74.56c0,2.174,1.089,3.906,3.236,5.149
		c2.055,1.192,4.573,1.797,7.484,1.797c2.803,0,5.293-0.604,7.4-1.794c2.203-1.241,3.32-2.975,3.32-5.152v-30.648l7.954-10.016
		l29.173,44.224c1.662,2.771,4.188,4.176,7.507,4.176c3.146,0,6.083-1.124,8.731-3.342c2.677-2.237,4.033-4.721,4.033-7.382
		C132.178,184.645,131.779,183.333,130.998,182.209z M127.502,192.714c-2.464,2.063-5.186,3.109-8.09,3.109
		c-2.985,0-5.16-1.207-6.661-3.708L82.807,146.72l-9.028,11.369v30.998c0,1.815-0.919,3.216-2.812,4.281
		c-1.956,1.104-4.28,1.665-6.909,1.665c-2.733,0-5.082-0.56-6.983-1.662c-1.842-1.066-2.738-2.468-2.738-4.284V113.1l-0.673,0.249
		c-4.578,1.69-9.818,2.548-15.577,2.548c-10.946,0-19.968-2.793-26.814-8.302c-6.816-5.482-10.271-13.05-10.271-22.492
		c0-3.608,0.738-6.102,2.194-7.413c1.47-1.324,4.002-1.995,7.528-1.995c6.15,0,9.331,1.961,9.723,5.965
		c0.428,11.485,6.045,17.309,16.696,17.309c11.393,0,17.169-6.252,17.169-18.584V17.927H37.77c-1.83,0-3.236-0.799-4.298-2.445
		c-1.094-1.689-1.648-3.767-1.648-6.176c0-2.305,0.529-4.305,1.572-5.942c1.013-1.591,2.443-2.364,4.374-2.364H65.29
		c2.299,0,4.324,0.555,6.019,1.649c1.646,1.067,2.446,2.474,2.446,4.299l0.024,124.378l34.871-47.46
		c1.381-1.874,3.101-2.785,5.257-2.785c2.484,0,5.02,1.097,7.536,3.261c2.495,2.148,3.76,4.428,3.76,6.775
		c0,1.446-0.387,2.664-1.15,3.619L95.68,130.246l34.489,52.522c0.67,0.964,1.009,2.084,1.008,3.331
		C131.177,188.45,129.941,190.676,127.502,192.714z"/>
</g>
</svg>
