<?xml version="1.0" encoding="utf-8"?>
<!-- Generator: Adobe Illustrator 16.0.0, SVG Export Plug-In . SVG Version: 6.00 Build 0)  -->
<!DOCTYPE svg PUBLIC "-//W3C//DTD SVG 1.1//EN" "http://www.w3.org/Graphics/SVG/1.1/DTD/svg11.dtd">
<svg version="1.1" id="Layer_1" xmlns="http://www.w3.org/2000/svg" xmlns:xlink="http://www.w3.org/1999/xlink" x="0px" y="0px"
	 width="230px" height="400px" viewBox="328.082 159.36 185.727 276.561"
	 enable-background="new 328.082 159.36 185.727 276.561" xml:space="preserve">
<g>
	
		<path fill="#FFFFFF" stroke="#E5E5E5" stroke-width="1.4051" stroke-linecap="round" stroke-linejoin="round" stroke-miterlimit="10" d="
		M511.562,415.771l-48.173-73.36l39.551-49.496c1.177-1.473,1.77-3.315,1.77-5.525c0-3.535-1.845-6.883-5.526-10.052
		c-3.683-3.167-7.367-4.752-11.048-4.752c-3.242,0-5.892,1.402-7.953,4.199l-47.73,64.963l-0.034-172.625
		c0-2.796-1.254-5.006-3.757-6.629c-2.506-1.619-5.452-2.432-8.84-2.432h-38.668c-2.947,0-5.192,1.216-6.739,3.647
		c-1.548,2.43-2.32,5.34-2.32,8.727c0,3.536,0.808,6.558,2.43,9.061c1.618,2.506,3.83,3.756,6.629,3.756h22.54v87.06
		c0,16.941-7.809,25.41-23.422,25.41c-14.582,0-22.172-7.879-22.759-23.644c-0.59-6.038-5.381-9.059-14.363-9.059
		c-5.158,0-8.839,0.995-11.049,2.983c-2.21,1.99-3.315,5.634-3.315,10.939c0,13.553,4.896,24.27,14.695,32.15
		c9.796,7.883,22.501,11.821,38.118,11.821c8.234,0,15.607-1.216,22.131-3.625v105.763c0,2.798,1.398,5.008,4.197,6.628
		c2.797,1.622,6.188,2.431,10.166,2.431c3.829,0,7.182-0.809,10.054-2.431c2.872-1.619,4.307-3.83,4.307-6.628v-43.311
		l11.933-15.025l41.542,62.977c2.211,3.684,5.527,5.525,9.946,5.525c4.269,0,8.209-1.512,11.819-4.531
		c3.607-3.018,5.414-6.297,5.414-9.833C513.106,418.942,512.587,417.244,511.562,415.771z"/>
</g>
</svg>
